<svg xmlns="http://www.w3.org/2000/svg" viewBox="0 0 1000 500" preserveAspectRatio="xMaxYMax slice"><path fill="#8b48bf" d="M0 0h1000v500H0z"/><path fill="#6b2d9b" d="M0 0h500v500H0z"/><path fill-rule="evenodd" clip-rule="evenodd" d="M250 500c138.07 0 250-111.93 250-250C500 111.929 388.07 0 250 0 111.929 0 0 111.929 0 250c0 138.07 111.929 250 250 250Zm0-75c96.65 0 175-78.35 175-175S346.65 75 250 75 75 153.35 75 250s78.35 175 175 175Z" fill="#8b48bf"/><path fill="#8b48bf" d="M500 0h500v500H500z"/><path fill="#803fb3" d="M500 0h250v250H500z"/><path fill-rule="evenodd" clip-rule="evenodd" d="M625 250c69.035 0 125-55.965 125-125C750 55.964 694.035 0 625 0c-69.036 0-125 55.964-125 125 0 69.035 55.964 125 125 125Zm0-37.5c48.325 0 87.5-39.175 87.5-87.5S673.325 37.5 625 37.5s-87.5 39.175-87.5 87.5 39.175 87.5 87.5 87.5Z" fill="#8b48bf"/><path fill="#61258f" d="M750 0h250v250H750z"/><path d="m875 0 125 125-125 125-125-125L875 0Z" fill="#783aa9"/><path fill="#5e238d" d="M500 250h250v250H500z"/><path d="m625 250 125 125-125 125-125-125 125-125Z" fill="#8b48bf"/><path fill="#662a96" d="M750 250h250v250H750z"/><path d="m875 250 125 125-125 125-125-125 125-125Z" fill="#7638a6"/></svg>