<svg width="40" height="40" viewBox="0 0 40 40" fill="none" xmlns="http://www.w3.org/2000/svg">
<path d="M8 7C7.44772 7 7 7.44772 7 8C7 8.55228 7.44772 9 8 9V7ZM10.6667 8L11.6451 7.79344C11.5475 7.33096 11.1393 7 10.6667 7V8ZM10.2216 10.7329C10.3356 11.2732 10.8662 11.6188 11.4066 11.5047C11.9469 11.3906 12.2925 10.8601 12.1784 10.3197L10.2216 10.7329ZM13.3333 19.6315C12.7811 19.6315 12.3333 20.0792 12.3333 20.6315C12.3333 21.1837 12.7811 21.6315 13.3333 21.6315V19.6315ZM26.6667 20.6315V21.6315C27.0375 21.6315 27.378 21.4262 27.5511 21.0982L26.6667 20.6315ZM32 10.5263L32.8844 10.9931C33.048 10.6831 33.0374 10.3101 32.8564 10.0099C32.6754 9.70979 32.3505 9.52629 32 9.52629V10.5263ZM11.2 9.52629C10.6477 9.52629 10.2 9.97401 10.2 10.5263C10.2 11.0786 10.6477 11.5263 11.2 11.5263V9.52629ZM12.3549 20.838C12.469 21.3784 12.9995 21.724 13.5399 21.6099C14.0803 21.4958 14.4259 20.9653 14.3118 20.4249L12.3549 20.838ZM12.1784 10.3197C12.0644 9.77936 11.5338 9.43378 10.9935 9.54786C10.4531 9.66194 10.1075 10.1925 10.2216 10.7329L12.1784 10.3197ZM14.0211 21.3574C14.422 20.9776 14.4391 20.3447 14.0593 19.9437C13.6795 19.5428 13.0465 19.5257 12.6456 19.9055L14.0211 21.3574ZM10.276 23.5279L9.58826 22.8019L9.58826 22.8019L10.276 23.5279ZM26.6667 26.684C27.219 26.684 27.6667 26.2363 27.6667 25.684C27.6667 25.1318 27.219 24.684 26.6667 24.684V26.684ZM26.6667 25.684H25.6667C25.6667 25.9586 25.7796 26.2211 25.9789 26.41L26.6667 25.684ZM29.3333 28.2103L28.6456 28.9363C28.8313 29.1123 29.0775 29.2103 29.3333 29.2103V28.2103ZM16 28.2103L15.1461 27.6899C15.0505 27.8467 15 28.0267 15 28.2103H16ZM16 30.7366H15C15 30.9202 15.0505 31.1003 15.1461 31.257L16 30.7366ZM8 9H10.6667V7H8V9ZM9.68823 8.20656L10.2216 10.7329L12.1784 10.3197L11.6451 7.79344L9.68823 8.20656ZM13.3333 21.6315H26.6667V19.6315H13.3333V21.6315ZM27.5511 21.0982L32.8844 10.9931L31.1156 10.0595L25.7823 20.1647L27.5511 21.0982ZM32 9.52629H11.2V11.5263H32V9.52629ZM14.3118 20.4249L12.1784 10.3197L10.2216 10.7329L12.3549 20.838L14.3118 20.4249ZM12.6456 19.9055L9.58826 22.8019L10.9637 24.2538L14.0211 21.3574L12.6456 19.9055ZM9.58826 22.8019C8.00644 24.3004 9.24609 26.684 11.2187 26.684V24.684C11.0367 24.684 10.942 24.5929 10.9031 24.5038C10.8824 24.4563 10.8795 24.4134 10.8855 24.3805C10.8905 24.3532 10.9053 24.3092 10.9637 24.2538L9.58826 22.8019ZM11.2187 26.684H26.6667V24.684H11.2187V26.684ZM27.6667 25.684C27.6667 24.8914 28.3612 24.1578 29.3333 24.1578V22.1578C27.3599 22.1578 25.6667 23.6863 25.6667 25.684H27.6667ZM29.3333 24.1578C30.3054 24.1578 31 24.8914 31 25.684H33C33 23.6863 31.3067 22.1578 29.3333 22.1578V24.1578ZM31 25.684C31 26.4767 30.3054 27.2103 29.3333 27.2103V29.2103C31.3067 29.2103 33 27.6818 33 25.684H31ZM30.0211 27.4844L27.3544 24.9581L25.9789 26.41L28.6456 28.9363L30.0211 27.4844ZM16.8539 28.7307C17.2174 28.1342 17.9913 27.809 18.7535 28.0025L19.2456 26.064C17.6763 25.6656 15.9895 26.306 15.1461 27.6899L16.8539 28.7307ZM18.7535 28.0025C19.5085 28.1942 19.9761 28.8204 19.9761 29.4735H21.9761C21.9761 27.8397 20.8223 26.4642 19.2456 26.064L18.7535 28.0025ZM19.9761 29.4735C19.9761 30.1265 19.5085 30.7528 18.7535 30.9444L19.2456 32.8829C20.8223 32.4827 21.9761 31.1072 21.9761 29.4735H19.9761ZM18.7535 30.9444C17.9913 31.1379 17.2174 30.8127 16.8539 30.2162L15.1461 31.257C15.9895 32.641 17.6763 33.2813 19.2456 32.8829L18.7535 30.9444ZM17 30.7366V28.2103H15V30.7366H17Z" fill="#ffffff"/>
</svg>
